<?xml version="1.0" encoding="UTF-8"?>
<svg width="212px" height="43px" viewBox="0 0 212 43" version="1.1" xmlns="http://www.w3.org/2000/svg" xmlns:xlink="http://www.w3.org/1999/xlink">
    <!-- Generator: Sketch 57.1 (83088) - https://sketch.com -->
    <title>Social logo</title>
    <desc>Created with Sketch.</desc>
    <g id="TheMovieBox" stroke="none" stroke-width="1" fill="none" fill-rule="evenodd" opacity="0.300000012">
        <g id="Homepage" transform="translate(-2494.000000, -5033.000000)">
            <g id="Footer" transform="translate(0.000000, 4844.000000)">
                <g id="Social-logo" transform="translate(2494.000000, 189.000000)">
                    <g id="facebook" transform="translate(0.000000, 0.936170)" fill="#BABBC3" fill-rule="nonzero">
                        <g id="Social-media">
                            <path d="M40.7289925,20.3475196 C40.7289925,9.1101032 31.6112219,0 20.3644962,0 C9.11770406,0 0,9.1101032 0,20.3475196 C0,31.5848696 9.11770406,40.6950392 20.3644962,40.6950392 C31.6112219,40.6950392 40.7289925,31.5848696 40.7289925,20.3475196 Z M15.7149281,20.5516757 L15.7149281,17.4026717 L17.6463161,17.4026717 L17.6463161,15.4982764 C17.6463161,12.9296848 18.4144041,11.0791737 21.2291659,11.0791737 L24.5769231,11.0791737 L24.5769231,14.2207027 L22.2203445,14.2207027 C21.0390142,14.2207027 20.7709827,15.0046061 20.7709827,15.8258843 L20.7709827,17.402618 L24.4032408,17.402618 L23.9077053,20.5516757 L20.7710903,20.5516757 L20.7710903,30.0495602 L17.6463161,30.0495602 L17.6463161,20.5516757 L15.7149281,20.5516757 Z" id="Shape"></path>
                            <path d="M77.7106501,0 C66.4638579,0 57.3461538,9.1101032 57.3461538,20.3475196 C57.3461538,31.5848696 66.4638579,40.6950392 77.7106501,40.6950392 C88.9573757,40.6950392 98.0751463,31.5848696 98.0751463,20.3475196 C98.0751463,9.1101032 88.9573757,0 77.7106501,0 Z M79.9150156,25.5755424 C78.6938811,25.5755424 77.544829,24.9017161 77.1498069,24.136284 C77.1498069,24.136284 76.4933985,26.7956589 76.3537153,27.3089322 C76.1193802,28.1763823 75.6672861,29.0423759 75.2481826,29.7282328 C74.650412,30.5086089 73.9609591,29.9293557 73.8783479,29.2179268 C73.8513508,28.42552 73.8798597,27.4875582 74.0766149,26.6336493 C74.2944278,25.697198 75.5320845,20.3439207 75.5320845,20.3439207 C75.5320845,20.3439207 75.1701069,19.6070277 75.1701069,18.5174685 C75.1701069,16.8065755 76.1419498,15.5294347 77.3525554,15.5294347 C78.3814163,15.5294347 78.8785955,16.3188742 78.8785955,17.2628244 C78.8785955,18.3178562 78.2192175,19.8966813 77.8797555,21.3584366 C77.5958536,22.5830848 78.4820616,23.5810922 79.66567,23.5810922 C81.8090267,23.5810922 83.2540214,20.7716304 83.2540214,17.4444177 C83.2540214,14.9141434 81.5837086,13.0216572 78.5451809,13.0216572 C75.1130349,13.0216572 72.9741598,15.6329633 72.9741598,18.5489748 C72.9741598,19.5544812 73.264055,20.2643455 73.7206846,20.8121463 C73.9294805,21.0643052 73.9595013,21.1663232 73.8828834,21.4560308 C73.8288351,21.6691304 73.7041624,22.1793825 73.6530838,22.3819619 C73.5779777,22.6746367 73.3451544,22.7782193 73.0867918,22.6701589 C71.5051916,22.0112766 70.7691957,20.2448699 70.7691957,18.2608858 C70.7691957,14.9816878 73.4803561,11.0496499 78.8560799,11.0496499 C83.1758917,11.0496499 86.0192301,14.2388065 86.0192301,17.662049 C86.020688,22.1928158 83.5528797,25.5755424 79.9150156,25.5755424 Z" id="Shape"></path>
                            <path d="M191.424772,1.15906788 C180.177737,1.15906788 171.060276,10.2689282 171.060276,21.5065875 C171.060276,32.7442468 180.177737,41.8541071 191.424772,41.8541071 C202.671807,41.8541071 211.789268,32.7442468 211.789268,21.5065875 C211.789268,10.2689282 202.671807,1.15906788 191.424772,1.15906788 Z M187.341626,29.6073294 L183.642437,29.6073294 L183.642437,17.71523 L187.341626,17.71523 L187.341626,29.6073294 L187.341626,29.6073294 Z M185.492839,16.0896428 C184.30716,16.0896428 183.347363,15.1293009 183.347363,13.9462242 C183.347632,12.7642236 184.30716,11.8038816 185.492839,11.8038816 C186.675287,11.8038816 187.636431,12.7642236 187.636431,13.9462242 C187.636431,15.1295699 186.675018,16.0896428 185.492839,16.0896428 Z M201.196357,29.6073294 L197.500129,29.6073294 L197.500129,23.8240267 C197.500129,22.4448466 197.474552,20.6710386 195.577304,20.6710386 C193.653402,20.6710386 193.357521,22.1731532 193.357521,23.7242265 L193.357521,29.6070604 L189.661562,29.6070604 L189.661562,17.71523 L193.209446,17.71523 L193.209446,19.3402791 L193.259253,19.3402791 C193.753286,18.4052235 194.959426,17.4195953 196.759214,17.4195953 C200.50498,17.4195953 201.196357,19.8825898 201.196357,23.0845365 L201.196357,29.6073294 Z" id="Shape"></path>
                            <path d="M134.677757,0.273552442 C123.430722,0.273552442 114.313261,9.38341279 114.313261,20.6210721 C114.313261,31.8587313 123.430722,40.9685917 134.677757,40.9685917 C145.924792,40.9685917 155.042253,31.8587313 155.042253,20.6210721 C155.042253,9.38341279 145.924792,0.273552442 134.677757,0.273552442 Z M142.918634,17.8177041 C142.924773,17.9715723 142.927976,18.1257071 142.927976,18.2806419 C142.927976,23.8481629 138.687866,29.6068858 131.592282,29.6068858 C129.423253,29.6068858 127.311338,28.9884797 125.484998,27.8180683 C125.446832,27.7938014 125.431086,27.746601 125.446298,27.7042005 C125.461511,27.6620668 125.504481,27.6359332 125.548518,27.6409999 C125.85491,27.6775336 126.168241,27.6956671 126.47917,27.6956671 C128.166726,27.6956671 129.76434,27.1743287 131.115613,26.1852524 C129.495847,26.0487177 128.10374,24.953507 127.603051,23.3910918 C127.592642,23.3585581 127.600115,23.3230911 127.622534,23.2974909 C127.64522,23.2718906 127.679916,23.2606905 127.71301,23.2668239 C128.161922,23.3518914 128.618307,23.3574915 129.058145,23.2860241 C127.387669,22.7673524 126.213612,21.2038705 126.213612,19.4238531 L126.214146,19.3721193 C126.214947,19.3382523 126.233362,19.3073186 126.26272,19.2905185 C126.291812,19.2734516 126.328109,19.273185 126.357467,19.2897185 C126.793034,19.5313208 127.275041,19.6865223 127.769591,19.7459896 C126.809582,18.9814488 126.245906,17.8225041 126.245906,16.5827587 C126.245906,15.8675517 126.435399,15.1646115 126.794102,14.5499389 C126.810115,14.5224719 126.838406,14.5048718 126.869899,14.5024717 C126.901659,14.4992717 126.932352,14.5131385 126.952369,14.5376721 C128.917226,16.9456956 131.807397,18.4283767 134.898003,18.6190452 C134.846493,18.3598427 134.820338,18.0926401 134.820338,17.8230375 C134.820338,15.5934157 136.635735,13.779798 138.866951,13.779798 C139.963876,13.779798 141.02397,14.2302024 141.783811,15.0174101 C142.640266,14.8430084 143.456154,14.5283387 144.209857,14.0819343 C144.244286,14.0614008 144.287522,14.0646008 144.319282,14.0894011 C144.350242,14.114468 144.363053,14.1560684 144.350776,14.1944687 C144.09536,14.9926099 143.59734,15.6888833 142.928242,16.1915549 C143.558374,16.0819538 144.169823,15.8968854 144.75138,15.6390162 C144.790346,15.6211493 144.836519,15.6323494 144.864542,15.6651498 C144.892299,15.6982167 144.894701,15.7454172 144.870681,15.7811509 C144.340901,16.5734253 143.684347,17.2584986 142.918634,17.8177041 Z" id="Shape"></path>
                        </g>
                    </g>
                    <g id="pinterest" transform="translate(53.629047, 0.000000)"></g>
                    <g id="linkedin" transform="translate(171.060276, 2.095238)"></g>
                    <g id="twitter" transform="translate(112.344661, 0.000000)"></g>
                </g>
            </g>
        </g>
    </g>
</svg>